<svg xmlns="http://www.w3.org/2000/svg" width="1440" height="833" fill="none"><path fill="url(#a)" d="M284.837 143.385c-417.493-95.923-463.214-39.968-433.889 0-135.465 281.275-367.605 797.76-212.445 613.508 193.95-230.315 821.789 105.915 1205.19 73.941 306.717-25.58 629.337-152.211 752.307-212.33V0l-447.88 87.93c-145.98 41.466-445.79 151.378-863.283 55.455"/><path fill="#fff" d="M322.923 213.627c4.639 5.579 12.4-2.562 12.397-8.4 5.295-9.47-4.629-15.753-10.366-6.954-5.739 2.962-8.655 14.056-2.031 15.354m1.313-1.712c-6.182-.627-2.389-10.347 1.474-12.509l.186-.948c4.964-7.784 12.692-2.332 7.728 5.452l-.186.948c.223 4.714-6.056 12.344-10.143 6.873zM305.669 203.026c4.634 5.604 12.579-3.479 12.583-9.348 5.306-9.526-4.694-15.424-10.552-6.005-5.743 2.983-8.655 14.055-2.031 15.353m1.313-1.711c-6.183-.625-2.392-10.332 1.474-12.51l.185-.948c4.974-7.83 12.702-2.378 7.728 5.452.218 4.739-6.247 13.317-10.328 7.821zM328.781 234.196c4.325 4.327 12.018.278 10.898-5.741 3.637-6.827-6.749-12.8-11.492-6.189-5.529 1.816-4.831 10.287.594 11.93m1.313-1.712-.941-.184c-4.319-1.426-4.414-7.986-.211-8.902l.941.184c3.309-5.151 11.222-.647 7.914 4.505l-.186.948c.895 4.235-4.376 7.949-7.703 4.397zM284.685 208.178c4.325 4.328 12.018.279 10.899-5.74 3.636-6.827-6.75-12.8-11.493-6.19-5.529 1.817-4.831 10.287.594 11.93m1.313-1.711-.941-.185c-4.319-1.426-4.414-7.985-.211-8.901l.941.184c3.309-5.151 11.222-.647 7.914 4.504l-.186.948c.895 4.235-4.376 7.949-7.703 4.398z"/><path fill="#fff" d="M319.561 230.96c8.972-16.272-17.914-32.773-27.89-17.279-19.13 6.139-9.493 20.471 2.329 28.022 11.931 6.991 29.18 9.16 25.561-10.743m-1.882-.369c3.391 18.113-11.549 16.173-22.367 9.4-10.817-6.772-20.978-18.432-3.071-24.229l.186-.948c9.199-14.483 33.337 1.076 25.252 15.777M1217.25 125.716c-4.43 5.751 5.22 11.534 10.92 10.249 10.4 3.084 14.35-7.978 4.5-11.641-4.15-4.948-15.61-5.355-15.42 1.392m1.96.905c-.75-6.169 9.57-4.604 12.52-1.311l.97-.027c8.68 3.133 5.06 11.87-3.62 8.737l-.97.027c-4.55 1.253-13.37-3.196-8.93-8.385zM1223.8 106.554c-4.45 5.752 6.16 11.508 11.88 10.222 10.46 3.083 14.02-7.968 3.54-11.614-4.17-4.947-15.61-5.355-15.42 1.392m1.96.905c-.75-6.169 9.55-4.604 12.52-1.311l.97-.027c8.73 3.132 5.11 11.869-3.62 8.737-4.58 1.254-14.37-3.168-9.9-8.358zM1198.47 135.95c-3.27 5.169 2.37 11.785 7.99 9.371 7.46 2.047 11.01-9.397 3.52-12.572-2.99-4.995-11.1-2.453-11.51 3.201m1.96.904-.03-.959c.44-4.526 6.82-6.059 8.64-2.161l.02.959c5.76 2.096 3.1 10.806-2.65 8.71l-.97.027c-3.93 1.803-8.71-2.522-5.98-6.549zM1214.16 87.215c-3.27 5.17 2.37 11.785 8 9.37 7.46 2.049 11-9.396 3.51-12.571-2.99-4.994-11.1-2.453-11.51 3.201m1.96.905-.03-.96c.45-4.525 6.82-6.059 8.64-2.16l.03.959c5.75 2.095 3.09 10.805-2.66 8.71l-.96.026c-3.94 1.804-8.72-2.522-5.99-6.548z"/><path fill="#fff" d="M1199.6 126.244c17.84 5.178 28.03-24.676 10.73-31.004-10.19-17.315-22.06-4.764-26.83 8.427-4.2 13.176-2.52 30.48 16.1 22.577m-.06-1.917c-16.92 7.287-18.31-7.714-14.08-19.755s13.37-24.515 22.96-8.32l.97-.026c16.15 5.792 6.27 32.759-9.85 28.101M2.748 261.137c-14.888 4.292-28.66 16.105-24.76 29.639l5.715 19.826c3.901 13.534 21.883 16.323 36.771 12.031s28.66-16.105 24.76-29.639l-5.75-19.944c-3.866-13.415-21.847-16.205-36.736-11.913m.26 58.302c-8.788-.811-15.213-4.616-16.616-9.484l-3.149-10.922c4.214 3.672 10.251 5.403 16.789 5.705-.645 2.629-.433 6.039.491 9.245.582 2.018 1.453 3.824 2.484 5.456M-9.88 298.08c4.278-5.348 11.395-9.843 19.746-12.25s16.769-2.39 23.237-.14c-3.993 4.88-10.783 9.537-19.78 12.131-8.965 2.712-17.192 2.384-23.203.259m52.46-4.321c2.19 7.598-6.937 19.23-23.509 24.007-3.56 1.026-6.9 1.603-10.147 1.767-2.209.123-4.686-2.635-5.747-6.315-.616-2.137-.71-4.167-.215-5.853.431-1.667 1.391-2.715 2.625-2.814 3.084-.246 6.195-.885 9.172-1.744 11.2-3.228 21.783-10.779 24.638-20.088zm-7.028-11.732c-7.168-3.463-17.185-3.919-27.09-1.064-9.903 2.855-18.14 8.572-22.366 15.319-2.786-1.64-4.735-3.778-5.453-6.271-2.19-7.598 6.936-19.23 23.508-24.007 16.572-4.776 30.524.331 32.68 7.811.718 2.493.207 5.34-1.279 8.212"/><path fill="#fff" d="M8.503 315.155c.894-.258 1.235-1.796.763-3.435s-1.58-2.759-2.474-2.501c-.894.257-1.235 1.795-.763 3.434s1.58 2.759 2.474 2.502M13.788 314.274c.894-.258 1.235-1.795.763-3.435-.473-1.639-1.58-2.759-2.474-2.501-.894.257-1.235 1.795-.763 3.434s1.58 2.759 2.474 2.502M19.035 313.019c.894-.258 1.235-1.796.763-3.435s-1.58-2.759-2.474-2.501c-.894.257-1.235 1.795-.763 3.434s1.58 2.759 2.474 2.502M24.08 311.307c.894-.258 1.236-1.795.763-3.434-.472-1.64-1.58-2.76-2.474-2.502-.893.258-1.235 1.795-.762 3.434.472 1.64 1.58 2.76 2.473 2.502M668.696 197.497c-2.39-5.681-8.189-8.695-12.908-6.71-4.161 1.75-6.13 6.625-4.957 11.673l-25.088 10.553c-2.787-4.369-7.649-6.371-11.81-4.62-4.719 1.985-6.62 8.238-4.231 13.918 1.038 2.466 2.695 4.496 4.754 5.741-.518 2.417-.258 4.947.779 7.413 2.389 5.68 8.189 8.694 12.908 6.709 4.161-1.75 6.13-6.624 4.957-11.672l25.025-10.527c2.788 4.369 7.65 6.37 11.81 4.62 4.72-1.985 6.621-8.238 4.232-13.918-1.038-2.467-2.696-4.496-4.754-5.741.58-2.444.32-4.973-.717-7.439m-1.976 10.419c1.807.647 3.338 2.202 4.155 4.145 1.478 3.513.313 7.345-2.606 8.573-2.856 1.202-6.348-.496-7.888-3.983-.471-1.121-1.562-1.63-2.494-1.238l-27.882 11.728c-.931.392-1.237 1.576-.859 2.649 1.384 3.464.249 7.195-2.669 8.423s-6.473-.62-7.951-4.132c-.817-1.944-.858-4.125-.057-5.87.278-.556.213-1.233-.039-1.831-.251-.597-.751-1.091-1.281-1.308-1.807-.647-3.338-2.202-4.156-4.145-1.477-3.513-.312-7.346 2.607-8.573 2.856-1.202 6.348.496 7.887 3.983.472 1.121 1.563 1.629 2.494 1.238l28.007-11.781c.931-.392 1.237-1.576.859-2.648-1.384-3.464-.25-7.196 2.669-8.424s6.473.62 7.951 4.133c.817 1.943.858 4.125.057 5.869-.278.557-.213 1.233.039 1.831.127.65.627 1.144 1.157 1.361"/><path fill="#fff" d="M635.426 200.935c.932-.392 1.3-1.602.828-2.723l-2.232-5.306c-.471-1.122-1.594-1.705-2.525-1.313-.932.392-1.3 1.602-.828 2.723l2.232 5.306c.472 1.122 1.594 1.705 2.525 1.313M642.204 200.02c.311.045.529.041.777-.063.621-.262 1.054-.971 1.019-1.748l-.149-5.567c-.036-1.129-.912-2.168-1.939-2.351-.996-.109-1.801.757-1.827 1.912l.149 5.567c.036 1.128.912 2.167 1.97 2.25M627.45 205.082c.625.617 1.341.755 1.962.494.249-.104.466-.284.589-.511.619-.788.488-2.141-.324-3.031l-3.875-3.999c-.782-.815-1.964-.846-2.645-.031-.618.788-.488 2.14.325 3.03zM648.504 232.026c-.931.392-1.299 1.603-.827 2.724l2.232 5.306c.471 1.121 1.594 1.705 2.525 1.313.932-.392 1.299-1.602.828-2.723l-2.232-5.307c-.472-1.121-1.594-1.704-2.526-1.313M641.727 232.942c-.996-.109-1.801.758-1.827 1.912l.149 5.567c.036 1.128.912 2.167 1.939 2.351.311.045.529.041.778-.063.621-.261 1.053-.971 1.018-1.748l-.149-5.567c.026-1.33-.85-2.369-1.908-2.452M656.481 227.88c-.782-.815-1.964-.846-2.645-.031-.618.788-.488 2.14.325 3.03l3.875 3.999c.625.617 1.341.756 1.962.495.248-.105.465-.284.588-.512.619-.788.489-2.141-.324-3.03zM1436.7 199.497c-2.39-5.681-8.19-8.695-12.91-6.71-4.16 1.75-6.13 6.625-4.96 11.673l-25.09 10.553c-2.78-4.369-7.65-6.371-11.81-4.62-4.72 1.985-6.62 8.238-4.23 13.918 1.04 2.466 2.7 4.496 4.76 5.741-.52 2.417-.26 4.947.78 7.413 2.38 5.68 8.18 8.694 12.9 6.709 4.16-1.75 6.13-6.624 4.96-11.672l25.03-10.527c2.78 4.369 7.64 6.37 11.81 4.62 4.71-1.985 6.62-8.238 4.23-13.918-1.04-2.467-2.7-4.496-4.76-5.741.58-2.444.32-4.973-.71-7.439m-1.98 10.419c1.81.647 3.34 2.202 4.16 4.145 1.47 3.513.31 7.345-2.61 8.573-2.86 1.202-6.35-.496-7.89-3.983-.47-1.121-1.56-1.63-2.49-1.238l-27.88 11.728c-.94.392-1.24 1.576-.86 2.649 1.38 3.464.25 7.195-2.67 8.423s-6.48-.62-7.95-4.132c-.82-1.944-.86-4.125-.06-5.87.28-.556.21-1.233-.04-1.831s-.75-1.091-1.28-1.308c-1.81-.647-3.34-2.202-4.16-4.145-1.47-3.513-.31-7.346 2.61-8.573 2.86-1.202 6.35.496 7.89 3.983.47 1.121 1.56 1.629 2.49 1.238l28.01-11.781c.93-.392 1.23-1.576.86-2.648-1.39-3.464-.25-7.196 2.67-8.424 2.91-1.227 6.47.62 7.95 4.133.81 1.943.85 4.125.05 5.869-.27.557-.21 1.233.04 1.831.13.65.63 1.144 1.16 1.361"/><path fill="#fff" d="M1403.43 202.935c.93-.392 1.3-1.602.82-2.723l-2.23-5.306c-.47-1.122-1.59-1.705-2.52-1.313s-1.3 1.602-.83 2.723l2.23 5.306c.47 1.122 1.6 1.705 2.53 1.313M1410.2 202.02c.32.045.53.041.78-.063.62-.262 1.05-.971 1.02-1.748l-.15-5.567c-.04-1.129-.91-2.168-1.94-2.351-.99-.109-1.8.757-1.82 1.912l.14 5.567c.04 1.128.92 2.167 1.97 2.25M1395.45 207.082c.63.617 1.34.755 1.96.494.25-.104.47-.284.59-.511.62-.788.49-2.141-.32-3.031l-3.88-3.999c-.78-.815-1.96-.846-2.64-.031-.62.788-.49 2.14.32 3.03zM1416.5 234.026c-.93.392-1.29 1.603-.82 2.724l2.23 5.306c.47 1.121 1.59 1.705 2.52 1.313.94-.392 1.3-1.602.83-2.723l-2.23-5.307c-.47-1.121-1.59-1.704-2.53-1.313M1409.73 234.942c-1-.109-1.8.758-1.83 1.912l.15 5.567c.04 1.128.91 2.167 1.94 2.351.31.045.53.041.78-.063.62-.261 1.05-.971 1.01-1.748l-.14-5.567c.02-1.33-.85-2.369-1.91-2.452M1424.48 229.88c-.78-.815-1.96-.846-2.64-.031-.62.788-.49 2.14.32 3.03l3.88 3.999c.62.617 1.34.756 1.96.495.25-.105.46-.284.59-.512.62-.788.48-2.141-.33-3.03z"/><defs><linearGradient id="a" x1="591.5" x2="591.742" y1="0" y2="613.009" gradientUnits="userSpaceOnUse"><stop stop-color="#f1f3ff"/><stop offset="1" stop-color="#f1f3ff" stop-opacity="0"/></linearGradient></defs></svg>