<svg xmlns="http://www.w3.org/2000/svg" width="92" height="20" fill="none"><path fill="#fcb62a" d="M7.778 11.279c.091 1.845 1.43 2.08 2.68 3.631 1.847 2.217 3.333 1.559 3.586-.04.238-1.536-1.06-2.633-1.146-4.275S14.033 7.468 13.66 6s-1.912-1.7-3.548.995c-1.105 1.859-2.378 2.452-2.334 4.283"/><path fill="#ff9f0e" d="M4.985 6.73c1.046.849 2.29.545 2.733-.39s-.092-2.575-1.15-3.365c-1.047-.85-2.292-.547-2.735.389-.43.876.106 2.516 1.152 3.365"/><path fill="#fcb62a" d="M2.399 11.465c1.233.066 2.355-.78 2.493-2.014.124-1.171-.763-2.201-2.038-2.28C1.62 7.103.498 7.95.36 9.183c-.124 1.172.805 2.216 2.039 2.281"/><path fill="#fa0" d="M2.986 17.355c1.12.024 2.24-.936 2.393-2.183.14-1.183-.578-2.506-1.736-2.543-1.121-.024-2.24.936-2.394 2.183-.14 1.184.616 2.519 1.737 2.543"/><path fill="#ff9f0e" d="M19.28 16V7.248l-.32-1.6.32-.976h4.768q1.152 0 2.208.224 1.073.208 1.904.8.848.592 1.328 1.696.495 1.103.496 2.864 0 1.76-.496 2.896-.496 1.12-1.344 1.744a5.1 5.1 0 0 1-1.92.864q-1.056.24-2.176.24zm2.912-2.56h1.856q1.409 0 2.16-.736.752-.751.752-2.448 0-1.696-.768-2.352-.752-.672-2.144-.672h-1.856zm14.497 2.72q-1.025 0-2-.24a4.6 4.6 0 0 1-1.744-.896q-.768-.64-1.232-1.776-.448-1.136-.448-2.912t.448-2.912q.465-1.136 1.232-1.776a4.4 4.4 0 0 1 1.744-.88 7.9 7.9 0 0 1 2-.256q1.024 0 1.984.256.975.256 1.744.896.784.64 1.232 1.776.465 1.136.464 2.896 0 1.76-.464 2.896-.449 1.136-1.232 1.776a4.46 4.46 0 0 1-1.744.896q-.96.256-1.984.256m0-2.72q1.185 0 1.792-.704.608-.705.608-2.4t-.608-2.4q-.608-.704-1.792-.704-1.168 0-1.776.72t-.608 2.384q0 1.665.608 2.384.608.72 1.776.72m12.765 2.72q-1.232 0-2.336-.24a5.1 5.1 0 0 1-1.936-.896q-.832-.64-1.312-1.776t-.48-2.912q0-1.711.512-2.832.512-1.136 1.36-1.792a5.4 5.4 0 0 1 1.904-.928 8.5 8.5 0 0 1 2.128-.272q.784 0 1.36.08t1.104.208l2.176 1.264-1.12 2.48-3.536-1.248q-.768 0-1.424.304-.64.304-1.04.976-.384.656-.384 1.776 0 1.808.8 2.544.816.72 2.224.72.72 0 1.12-.064.415-.08.64-.128v-1.216h-2.032V9.84h5.088l.176.96-.352 1.328v3.36a11 11 0 0 1-.8.224q-.608.16-1.6.304-.975.144-2.24.144m10.974-.02q-.825 0-1.666-.238a4.4 4.4 0 0 1-1.526-.798q-.686-.574-1.106-1.554-.42-.994-.42-2.506 0-1.526.588-2.66.602-1.148 1.638-1.792 1.035-.644 2.352-.644.63 0 1.204.112.587.112.896.252l1.554 1.414-.98 1.47-2.394-1.232q-.784 0-1.414.378T58.146 9.42q-.364.686-.364 1.624 0 1.078.378 1.778a2.56 2.56 0 0 0 1.064 1.05q.672.336 1.498.336.84 0 1.442-.14a6.4 6.4 0 0 0 1.008-.336q.406-.196.616-.336V15.3q-.393.266-1.204.56-.797.28-2.156.28m5.137-.14-.28-.84.28-1.4V6.088h1.96v5.754l-.14 2.338h.28l3.066-.14.994-.14.952 1.204-.686.896zm11.481.14q-1.441 0-2.268-.476-.812-.476-1.162-1.4-.336-.938-.336-2.282v-3.64l.014-1.414-.014-.84h1.988v6.034q0 .98.392 1.596.391.602 1.386.602t1.4-.56q.42-.575.42-1.638V6.088h1.946v5.894q0 1.316-.336 2.254a2.58 2.58 0 0 1-1.148 1.414q-.812.49-2.282.49m5.582-.14V8.328l-.28-1.4.28-.84h3.64q1.064 0 1.834.252.783.238 1.218.784t.434 1.456q0 .56-.196 1.064a1.8 1.8 0 0 1-.63.826q.882.308 1.344.924t.462 1.638q0 1.554-.868 2.268-.868.7-2.618.7zm1.96-5.922h1.932q1.176 0 1.176-1.036 0-.517-.238-.826t-.938-.308h-1.932zm0 4.102h2.52q.742 0 1.078-.336.35-.336.35-.938 0-.574-.378-.868-.365-.294-1.19-.294h-2.38z"/></svg>