<svg xmlns="http://www.w3.org/2000/svg" width="182" height="43" fill="none"><path fill="#fcb62a" d="M20.907 24.936c.244 4.96 3.844 5.593 7.2 9.76 4.965 5.959 8.96 4.19 9.64-.108.64-4.13-2.85-7.076-3.081-11.49-.231-4.413 3.051-8.403 2.049-12.346s-5.138-4.568-9.536 2.674c-2.97 4.996-6.392 6.59-6.272 11.51"/><path fill="#ff9f0e" d="M13.398 12.71c2.811 2.283 6.157 1.468 7.347-1.046s-.248-6.92-3.094-9.045C14.84.336 11.494 1.151 10.304 3.665c-1.155 2.354.283 6.761 3.094 9.044"/><path fill="#fcb62a" d="M6.448 25.438c3.315.177 6.33-2.096 6.701-5.413.334-3.148-2.052-5.917-5.479-6.13-3.315-.177-6.331 2.096-6.702 5.413-.333 3.148 2.164 5.953 5.48 6.13"/><path fill="#fa0" d="M8.024 41.266c3.013.066 6.022-2.515 6.435-5.866.375-3.18-1.555-6.735-4.668-6.833-3.013-.066-6.021 2.515-6.435 5.866-.375 3.18 1.656 6.768 4.668 6.833"/><path fill="#ff9f0e" d="M47.565 33.5V15.996l-.64-3.2.64-1.952H57.1q2.304 0 4.416.448 2.144.415 3.808 1.6 1.696 1.185 2.656 3.392.992 2.208.992 5.728t-.992 5.792q-.993 2.24-2.688 3.488a10.1 10.1 0 0 1-3.84 1.728q-2.112.48-4.352.48zm5.824-5.12H57.1q2.816 0 4.32-1.472 1.504-1.504 1.504-4.896t-1.536-4.704q-1.504-1.344-4.288-1.344h-3.712zm28.994 5.44q-2.049 0-4-.48a9.2 9.2 0 0 1-3.488-1.792q-1.537-1.28-2.464-3.552-.897-2.272-.896-5.824 0-3.552.896-5.824.927-2.273 2.464-3.552a8.85 8.85 0 0 1 3.488-1.76 15.7 15.7 0 0 1 4-.512q2.048 0 3.968.512a8.9 8.9 0 0 1 3.488 1.792q1.567 1.28 2.464 3.552.928 2.272.928 5.792t-.928 5.792q-.897 2.273-2.464 3.552a8.9 8.9 0 0 1-3.488 1.792q-1.92.512-3.968.512m0-5.44q2.367 0 3.584-1.408 1.216-1.408 1.216-4.8t-1.216-4.8-3.584-1.408q-2.337 0-3.552 1.44-1.216 1.44-1.216 4.768t1.216 4.768 3.552 1.44m25.53 5.44q-2.464 0-4.672-.48-2.177-.512-3.872-1.792-1.665-1.28-2.624-3.552t-.96-5.824q0-3.424 1.024-5.664 1.024-2.273 2.72-3.584a10.7 10.7 0 0 1 3.808-1.856 17 17 0 0 1 4.256-.544q1.568 0 2.72.16t2.208.416l4.352 2.528-2.24 4.96-7.072-2.496a6.7 6.7 0 0 0-2.848.608q-1.28.608-2.08 1.952-.768 1.313-.768 3.552 0 3.616 1.6 5.088 1.631 1.44 4.448 1.44 1.44 0 2.24-.128a68 68 0 0 0 1.28-.256v-2.432h-4.064V21.18h10.176l.352 1.92-.704 2.656v6.72q-.352.128-1.6.448-1.217.32-3.2.608-1.953.288-4.48.288m20.423-.08q-1.416 0-2.856-.408a7.5 7.5 0 0 1-2.616-1.368q-1.176-.984-1.896-2.664-.72-1.704-.72-4.296 0-2.616 1.008-4.56 1.032-1.968 2.808-3.072t4.032-1.104q1.08 0 2.064.192 1.008.192 1.536.432l2.664 2.424-1.68 2.52-4.104-2.112q-1.344 0-2.424.648t-1.728 1.848q-.624 1.176-.624 2.784 0 1.848.648 3.048.672 1.2 1.824 1.8 1.152.576 2.568.576 1.44 0 2.472-.24a11 11 0 0 0 1.728-.576 9 9 0 0 0 1.056-.576V32.3q-.672.456-2.064.96-1.368.48-3.696.48m8.808-.24-.48-1.44.48-2.4V16.508h3.36v9.864l-.24 4.008h.48l5.256-.24 1.704-.24 1.632 2.064-1.176 1.536zm19.681.24q-2.472 0-3.888-.816-1.392-.816-1.992-2.4-.576-1.608-.576-3.912v-6.24l.024-2.424-.024-1.44h3.408v10.344q0 1.68.672 2.736.672 1.032 2.376 1.032t2.4-.96q.72-.984.72-2.808V16.508h3.336v10.104q0 2.256-.576 3.864-.552 1.584-1.968 2.424-1.392.84-3.912.84m9.569-.24V20.348l-.48-2.4.48-1.44h6.24q1.824 0 3.144.432 1.344.408 2.088 1.344t.744 2.496q0 .96-.336 1.824a3.1 3.1 0 0 1-1.08 1.416q1.512.528 2.304 1.584t.792 2.808q0 2.664-1.488 3.888-1.488 1.2-4.488 1.2zm3.36-10.152h3.312q2.016 0 2.016-1.776 0-.888-.408-1.416t-1.608-.528h-3.312zm0 7.032h4.32q1.272 0 1.848-.576.6-.576.6-1.608 0-.984-.648-1.488-.624-.504-2.04-.504h-4.08z"/></svg>