<svg xmlns="http://www.w3.org/2000/svg" width="880" height="880" fill="none"><g clip-path="url(#a)"><rect width="880" height="880" fill="#fffaf3" rx="32"/><g fill="#fff" filter="url(#b)"><path d="M702.194 81.162c7.006 8.18 2.28 16.393 2.519 29.649.264 19.282-9.783 25.318-17.362 20.211-7.467-4.831-6.177-16.956-12.884-23.66-6.292-7.178-17.839-6.682-22.127-14.927-4.175-7.97 2.435-17.192 21.46-15.416 12.721 1.276 20.858-3.84 28.394 4.142M724.162 94.274c-9.784.818-16.662 6.984-15.903 13.336s10.209 10.53 19.881 9.438c9.783-.818 16.774-6.71 15.903-13.336s-10.097-10.256-19.881-9.438M689.167 56.818c-1.24 9.759-7.146 16.014-13.302 14.472s-10.215-11.465-8.608-21.04c1.241-9.76 7.147-16.015 13.302-14.473s10.215 11.465 8.608 21.04M722.806 63.88c-8.746 5.57-13.527 14.393-9.756 20.53s14.072 6.525 22.818.954c8.745-5.57 13.526-14.392 9.756-20.53-3.771-6.136-14.073-6.524-22.818-.954M721.517 59.785c-5.796 8.225-14.486 10.741-19.823 6.364s-4.394-14.452 1.402-22.677c5.795-8.225 14.486-10.741 19.823-6.364s4.394 14.452-1.402 22.677"/></g><g fill="#fff" filter="url(#c)"><path d="M756.194 807.162c7.006 8.18 2.28 16.393 2.519 29.649.264 19.282-9.783 25.318-17.362 20.211-7.467-4.831-6.177-16.956-12.884-23.66-6.292-7.178-17.839-6.682-22.127-14.927-4.175-7.969 2.435-17.192 21.46-15.416 12.721 1.276 20.858-3.84 28.394 4.143M778.162 820.274c-9.784.818-16.662 6.984-15.903 13.336s10.209 10.53 19.881 9.438c9.783-.818 16.774-6.71 15.903-13.336s-10.097-10.256-19.881-9.438M743.167 782.818c-1.24 9.759-7.146 16.015-13.302 14.472-6.155-1.542-10.215-11.465-8.608-21.041 1.241-9.759 7.147-16.014 13.302-14.472s10.215 11.465 8.608 21.041M776.806 789.88c-8.746 5.571-13.527 14.393-9.756 20.53s14.072 6.525 22.818.954c8.745-5.57 13.526-14.392 9.756-20.529-3.771-6.137-14.073-6.525-22.818-.955M775.517 785.785c-5.796 8.225-14.486 10.741-19.823 6.364s-4.394-14.452 1.402-22.677c5.795-8.225 14.486-10.741 19.823-6.364s4.394 14.452-1.402 22.677"/></g><g fill="#fff" filter="url(#d)"><path d="M65.41 265.097c7.434-7.794 16.081-3.918 29.245-5.489 19.158-2.203 26.174 7.186 21.856 15.241-4.056 7.914-16.249 7.851-22.244 15.199-6.508 6.981-4.854 18.42-12.625 23.516-7.509 4.956-17.35-.693-17.497-19.8-.01-12.785-5.919-20.366 1.265-28.667M76.246 241.921c1.798 9.652 8.625 15.875 14.868 14.481s9.449-11.217 7.39-20.729c-1.798-9.652-8.364-16.014-14.868-14.481-6.505 1.533-9.188 11.077-7.39 20.729M42.5 280.507c9.835.252 16.653 5.499 15.738 11.778-.916 6.279-10.38 11.317-20.068 10.682-9.835-.253-16.653-5.5-15.737-11.779s10.379-11.317 20.067-10.681M46.143 246.328c6.422 8.141 15.68 12.01 21.407 7.641 5.726-4.369 5.076-14.657-1.346-22.797s-15.68-12.011-21.407-7.642c-5.726 4.369-5.076 14.658 1.346 22.798M42.198 248.022c8.766 4.939 12.144 13.333 8.326 19.083s-13.937 5.826-22.703.887-12.144-13.333-8.326-19.083 13.937-5.826 22.703-.887"/></g><g fill="#fff" filter="url(#e)"><path d="M45.054 850.353c-9.547-4.985-8.217-14.367-13.372-26.582-7.421-17.799-.341-27.14 8.594-25.221 8.728 1.706 12.043 13.44 20.763 17.166 8.51 4.321 19.044-.436 26.093 5.621 6.84 5.843 4.138 16.863-14.182 22.294-12.282 3.55-17.93 11.327-27.896 6.722M19.784 846.358c8.777-4.4 12.866-12.683 9.798-18.296s-13.394-5.974-21.965-1.361c-8.777 4.4-13.072 12.47-9.798 18.296 3.275 5.826 13.189 5.761 21.965 1.361M66.205 868.101c-2.48-9.52.673-17.524 6.96-18.383 6.288-.86 13.749 6.84 15.821 16.325 2.48 9.52-.674 17.524-6.96 18.384-6.288.859-13.75-6.841-15.821-16.326M32.354 874.064c6.044-8.425 7.199-18.393 1.415-22.686s-15.49-.819-21.534 7.606-7.198 18.393-1.415 22.686 15.49.819 21.534-7.606M35.074 877.386c2.319-9.791 9.449-15.361 16.031-13.284 6.583 2.076 9.457 11.779 7.139 21.57s-9.449 15.36-16.031 13.284c-6.583-2.077-9.458-11.779-7.139-21.57"/></g></g><defs><filter id="b" width="111.785" height="113.769" x="643.14" y="26.984" color-interpolation-filters="sRGB" filterUnits="userSpaceOnUse"><feFlood flood-opacity="0" result="BackgroundImageFix"/><feBlend in="SourceGraphic" in2="BackgroundImageFix" result="shape"/><feGaussianBlur result="effect1_foregroundBlur_130_918" stdDeviation="4"/></filter><filter id="c" width="111.785" height="113.769" x="697.14" y="752.984" color-interpolation-filters="sRGB" filterUnits="userSpaceOnUse"><feFlood flood-opacity="0" result="BackgroundImageFix"/><feBlend in="SourceGraphic" in2="BackgroundImageFix" result="shape"/><feGaussianBlur result="effect1_foregroundBlur_130_918" stdDeviation="4"/></filter><filter id="d" width="115.799" height="110.302" x="9.94" y="212.964" color-interpolation-filters="sRGB" filterUnits="userSpaceOnUse"><feFlood flood-opacity="0" result="BackgroundImageFix"/><feBlend in="SourceGraphic" in2="BackgroundImageFix" result="shape"/><feGaussianBlur result="effect1_foregroundBlur_130_918" stdDeviation="4"/></filter><filter id="e" width="109.845" height="117.084" x="-11.276" y="790.303" color-interpolation-filters="sRGB" filterUnits="userSpaceOnUse"><feFlood flood-opacity="0" result="BackgroundImageFix"/><feBlend in="SourceGraphic" in2="BackgroundImageFix" result="shape"/><feGaussianBlur result="effect1_foregroundBlur_130_918" stdDeviation="4"/></filter><clipPath id="a"><rect width="880" height="880" fill="#fff" rx="32"/></clipPath></defs></svg>