<svg xmlns="http://www.w3.org/2000/svg" width="506" height="438" fill="none"><path fill="#fff" d="M258.945 10.548c-1.824-.787-3.037.593-5.423 1.28-3.456 1.03-3.989 3.107-2.729 4.178s3.297.063 4.86.908c1.592.733 2.014 2.915 3.663 3.185 1.635.327 3.051-1.363 1.803-4.633-.855-2.166-.452-3.976-2.174-4.918M254.98 6.834c.215 1.871-.514 3.583-1.618 3.825-1.16.228-2.266-1.1-2.481-2.972s.514-3.583 1.619-3.824c1.159-.23 2.266 1.1 2.48 2.97M263.801 11.236c-1.66.885-2.537 2.44-2.026 3.472.511 1.031 2.259 1.2 3.919.317 1.66-.885 2.537-2.44 2.026-3.472-.568-1.045-2.316-1.214-3.919-.317M260.608 5.76c-.551 1.914-2.019 3.178-3.195 2.839-1.176-.34-1.664-2.189-1.113-4.103.552-1.914 2.019-3.178 3.196-2.838 1.176.34 1.664 2.189 1.112 4.102M261.755 6.075c-1.144 1.506-1.244 3.258-.311 3.937.988.691 2.667.056 3.798-1.396 1.144-1.506 1.244-3.258.311-3.937-.92-.732-2.654-.11-3.798 1.396M46.22 243.452c-1.955.351-2.204 2.172-3.813 4.062-2.312 2.768-1.61 4.793.032 4.99s2.784-1.769 4.554-1.928c1.732-.268 3.289 1.318 4.813.632 1.543-.631 1.79-2.822-1.057-4.859-1.91-1.332-2.574-3.064-4.53-2.897M40.863 242.545c1.213 1.442 1.55 3.271.764 4.083-.84.831-2.497.335-3.71-1.106-1.212-1.442-1.55-3.271-.763-4.083.84-.831 2.496-.335 3.71 1.106M50.648 241.343c-.896 1.654-.768 3.434.229 4.012.996.578 2.547-.247 3.442-1.901s.767-3.434-.23-4.012c-1.05-.558-2.6.267-3.441 1.901M44.962 238.542c.597 1.899.072 3.764-1.096 4.131s-2.596-.905-3.194-2.805-.072-3.764 1.096-4.131 2.596.905 3.194 2.805M46.091 238.17c-.122 1.888.763 3.404 1.916 3.454 1.206.03 2.254-1.427 2.394-3.261.122-1.888-.762-3.404-1.915-3.454-1.171-.102-2.273 1.374-2.395 3.261M459.22 322.452c-1.955.351-2.204 2.172-3.813 4.062-2.312 2.768-1.609 4.793.032 4.99s2.784-1.769 4.554-1.928c1.732-.268 3.289 1.318 4.813.632 1.543-.631 1.789-2.822-1.057-4.859-1.91-1.332-2.573-3.064-4.529-2.897M453.863 321.545c1.213 1.442 1.551 3.271.764 4.083-.84.831-2.497.335-3.709-1.106s-1.551-3.271-.764-4.083c.84-.831 2.496-.335 3.709 1.106M463.648 320.343c-.896 1.654-.767 3.434.229 4.012s2.547-.247 3.442-1.901.767-3.434-.229-4.012c-1.051-.558-2.601.267-3.442 1.901M457.962 317.542c.597 1.899.072 3.764-1.096 4.131s-2.596-.905-3.194-2.805-.072-3.764 1.096-4.131 2.596.905 3.194 2.805M459.091 317.17c-.122 1.888.763 3.404 1.916 3.454 1.206.03 2.254-1.427 2.394-3.261.122-1.888-.762-3.404-1.915-3.454-1.171-.102-2.273 1.374-2.395 3.261M339.22 75.452c-1.955.35-2.204 2.172-3.813 4.062-2.312 2.768-1.609 4.793.032 4.99s2.784-1.769 4.554-1.928c1.732-.268 3.289 1.318 4.813.632 1.543-.631 1.789-2.822-1.057-4.859-1.91-1.333-2.573-3.064-4.529-2.897M333.863 74.545c1.213 1.442 1.551 3.271.764 4.083-.84.831-2.497.335-3.709-1.106s-1.551-3.271-.764-4.083c.84-.83 2.496-.335 3.709 1.106M343.648 73.343c-.896 1.654-.767 3.435.229 4.012.996.578 2.547-.247 3.442-1.9.895-1.655.767-3.435-.229-4.013-1.051-.558-2.601.267-3.442 1.9M337.962 70.542c.597 1.9.072 3.764-1.096 4.13-1.168.368-2.596-.904-3.194-2.804s-.072-3.764 1.096-4.131 2.596.905 3.194 2.805M339.091 70.17c-.122 1.888.763 3.404 1.916 3.454 1.206.03 2.254-1.427 2.394-3.261.122-1.888-.762-3.404-1.915-3.454-1.171-.102-2.273 1.374-2.395 3.261"/><g fill="#fff" opacity=".96"><path d="M65.127 330.33c-12.95-9.204-24.75-.432-44.563.959-28.757 2.287-36.394 17.642-28.33 28.124 8.066 10.482 25.696 6.006 36.513 15.226 11.23 8.39 10.885 26.171 23.336 31.038 12.246 5.282 26.144-5.574 21.846-33.243-3.077-18.375 3.1-31.859-8.802-42.104M40.315 294.648c-1.446 15-10.007 27.175-19.053 27.221-9.45-.145-15.892-12.387-14.445-27.387s10.007-27.174 19.052-27.221c9.451.145 15.892 12.387 14.446 27.387M101.97 343.824c-14.464 4.145-23.921 14.847-21.644 23.775s15.67 13.171 30.134 9.025 23.921-14.847 21.643-23.775c-2.695-9.125-16.087-13.369-30.133-9.025M86.14 295.65c-7.51 14.052-21.103 21.491-29.739 16.871s-9.365-19.903-1.855-33.955c7.51-14.053 21.103-21.492 29.739-16.872s9.365 19.903 1.855 33.956M94.585 300.026c-11.468 9.871-15.177 23.414-9.007 30.281 6.578 7.061 20.772 4.894 32.041-4.577 11.468-9.871 15.177-23.414 9.008-30.281-5.971-7.267-20.574-5.294-32.042 4.577"/></g><g fill="#fff" opacity=".96"><path d="M423.164 175.33c12.95-9.204 24.749-.432 44.562.959 28.758 2.287 36.395 17.642 28.33 28.124s-25.695 6.006-36.512 15.226c-11.231 8.39-10.885 26.171-23.337 31.038-12.245 5.282-26.143-5.574-21.845-33.243 3.077-18.375-3.099-31.859 8.802-42.104M447.976 139.648c1.446 15 10.007 27.175 19.052 27.221 9.451-.145 15.892-12.387 14.446-27.387s-10.007-27.174-19.052-27.221c-9.451.145-15.892 12.387-14.446 27.387M386.321 188.824c14.464 4.145 23.921 14.847 21.644 23.775s-15.67 13.171-30.134 9.025-23.921-14.847-21.643-23.775c2.695-9.125 16.087-13.369 30.133-9.025M402.151 140.65c7.51 14.052 21.103 21.491 29.739 16.871s9.365-19.903 1.855-33.955c-7.51-14.053-21.103-21.492-29.739-16.872s-9.365 19.903-1.855 33.956M393.705 145.026c11.469 9.871 15.178 23.414 9.008 30.281-6.578 7.061-20.772 4.894-32.041-4.577-11.468-9.871-15.177-23.414-9.008-30.281 5.971-7.267 20.573-5.294 32.041 4.577"/></g><path fill="#fff" d="M69.388 426.14c-1.978.173-2.39 1.965-4.164 3.702-2.552 2.548-2.034 4.629-.417 4.973s2.932-1.511 4.709-1.509c1.748-.112 3.156 1.609 4.736 1.063 1.593-.489 2.037-2.649-.614-4.934-1.782-1.5-2.287-3.284-4.25-3.295M64.136 424.754c1.077 1.545 1.249 3.398.392 4.135-.912.752-2.517.109-3.594-1.436-1.078-1.545-1.25-3.398-.392-4.135.91-.752 2.516-.109 3.594 1.436M73.989 424.44c-1.041 1.566-1.074 3.351-.134 4.016s2.559-.016 3.6-1.582 1.073-3.352.133-4.017c-.996-.65-2.614.031-3.6 1.583M68.579 421.137c.423 1.946-.268 3.755-1.464 4.015-1.197.26-2.504-1.135-2.928-3.081-.424-1.947.267-3.756 1.464-4.016 1.196-.26 2.504 1.136 2.928 3.082M69.737 420.869c-.292 1.869.453 3.458 1.596 3.612 1.198.139 2.374-1.217 2.68-3.032.291-1.868-.453-3.458-1.597-3.612-1.157-.208-2.387 1.163-2.679 3.032M51.978 193.299c-.893-.648-1.719-.047-3.095.035-1.999.138-2.54 1.199-1.988 1.933.553.733 1.78.435 2.525 1.083.773.591.737 1.825 1.598 2.172.846.376 1.82-.368 1.54-2.292-.2-1.279.239-2.21-.58-2.931M50.28 190.804c-.11 1.04-.714 1.88-1.342 1.876-.656-.017-1.095-.871-.984-1.912.112-1.04.715-1.88 1.343-1.876.656.016 1.095.871.983 1.912M54.526 194.263c-1.007.278-1.671 1.014-1.52 1.635.152.622 1.079.926 2.086.649 1.008-.278 1.672-1.014 1.52-1.636-.18-.635-1.107-.939-2.086-.648M53.462 190.906c-.532.971-1.481 1.478-2.077 1.151-.597-.328-.636-1.389-.105-2.36.532-.97 1.481-1.477 2.078-1.15s.636 1.389.104 2.359M54.045 191.216c-.803.678-1.07 1.615-.647 2.097.452.495 1.439.354 2.228-.295.804-.677 1.071-1.615.648-2.096-.41-.509-1.425-.383-2.229.294M330.77 16.505c-.892-.649-1.718-.048-3.095.034-1.998.138-2.54 1.2-1.987 1.933s1.78.435 2.524 1.083c.774.591.737 1.826 1.598 2.172.847.376 1.82-.368 1.541-2.292-.2-1.278.238-2.21-.581-2.93M329.073 14.009c-.111 1.04-.714 1.88-1.343 1.877-.656-.017-1.094-.872-.983-1.913s.714-1.88 1.343-1.876c.656.017 1.094.871.983 1.912M333.319 17.468c-1.007.278-1.672 1.014-1.52 1.636s1.079.925 2.086.648 1.672-1.014 1.52-1.635c-.181-.636-1.107-.94-2.086-.649M332.254 14.112c-.531.97-1.48 1.477-2.077 1.15-.596-.327-.636-1.39-.104-2.36.531-.97 1.481-1.477 2.077-1.15s.636 1.39.104 2.36M332.838 14.422c-.804.677-1.071 1.614-.648 2.096.452.495 1.439.355 2.229-.295.803-.677 1.071-1.615.647-2.096-.409-.51-1.425-.383-2.228.295M33.682 326.538c-1.099.099-1.325 1.094-2.308 2.063-1.414 1.419-1.123 2.574-.224 2.763.898.188 1.626-.844 2.614-.846.97-.064 1.756.889 2.632.584.885-.274 1.128-1.475-.348-2.74-.992-.831-1.276-1.821-2.366-1.824M30.762 325.776c.6.856.699 1.885.224 2.296-.506.419-1.398.064-2-.792-.6-.857-.698-1.886-.223-2.297.505-.419 1.397-.064 1.999.793M36.235 325.586c-.576.872-.591 1.863-.068 2.231.523.369 1.421-.012 1.997-.884s.592-1.864.068-2.232c-.554-.359-1.452.021-1.997.885M33.225 323.759c.238 1.081-.143 2.087-.808 2.233-.664.146-1.393-.627-1.63-1.708-.24-1.08.142-2.086.806-2.233.665-.146 1.393.628 1.631 1.708M33.868 323.609c-.16 1.038.256 1.92.892 2.004.666.075 1.317-.68 1.484-1.688.159-1.039-.257-1.921-.893-2.005-.643-.114-1.324.65-1.483 1.689M484.066 389.743c1.099.099 1.325 1.095 2.307 2.063 1.414 1.419 1.124 2.574.225 2.763s-1.627-.844-2.614-.846c-.971-.064-1.756.89-2.633.584-.884-.274-1.127-1.475.349-2.74.992-.831 1.275-1.821 2.366-1.824M486.986 388.981c-.601.857-.699 1.885-.224 2.296.505.419 1.398.064 1.999-.792s.699-1.886.224-2.297c-.505-.419-1.398-.064-1.999.793M481.513 388.791c.575.872.591 1.864.068 2.232s-1.422-.013-1.997-.885-.592-1.863-.069-2.232c.555-.359 1.453.022 1.998.885M484.523 386.964c-.238 1.081.143 2.087.807 2.233.664.147 1.393-.627 1.631-1.707.239-1.081-.142-2.087-.807-2.233-.664-.147-1.393.627-1.631 1.707M483.88 386.814c.159 1.038-.257 1.92-.892 2.004-.666.076-1.317-.68-1.484-1.688-.159-1.039.257-1.921.892-2.005.643-.113 1.325.65 1.484 1.689M200.68 47.54c-1.097.125-1.299 1.126-2.259 2.117-1.38 1.452-1.062 2.6-.159 2.767.903.168 1.606-.881 2.593-.907.97-.087 1.777.848 2.646.522.878-.296 1.092-1.501-.413-2.732-1.012-.806-1.318-1.79-2.408-1.767M197.742 46.847c.621.842.743 1.868.278 2.29-.495.431-1.396.097-2.017-.745s-.743-1.868-.278-2.29c.495-.431 1.396-.097 2.017.745M203.209 46.528c-.555.885-.547 1.877-.015 2.233.532.355 1.421-.047 1.976-.932s.547-1.877.015-2.233c-.562-.346-1.451.056-1.976.932M200.157 44.773c.263 1.074-.094 2.09-.755 2.251-.66.162-1.407-.594-1.671-1.668-.263-1.075.094-2.09.755-2.252.66-.162 1.407.594 1.671 1.669M200.796 44.607c-.135 1.042.302 1.914.939 1.983.668.06 1.301-.71 1.444-1.723.135-1.042-.302-1.914-.939-1.983-.646-.098-1.309.681-1.444 1.723M496.275 248.633c-1.755.928-1.439 2.739-2.397 5.029-1.36 3.34-.075 5.056 1.549 4.744s2.114-2.532 3.752-3.221c1.567-.783 3.533.255 4.777-.862 1.277-1.071.846-3.232-2.485-4.307-2.224-.689-3.383-2.137-5.196-1.383M490.897 249.398c1.594 1.005 2.472 2.645 1.969 3.657-.547 1.047-2.276 1.079-3.87.074s-2.472-2.644-1.969-3.657c.547-1.047 2.276-1.078 3.87-.074M499.852 245.277c-.35 1.848.314 3.505 1.439 3.753 1.125.247 2.351-1.01 2.701-2.858s-.314-3.505-1.439-3.753c-1.17-.211-2.397 1.046-2.701 2.858M493.584 244.338c1.147 1.628 1.214 3.564.212 4.268-1.001.705-2.748-.072-3.895-1.7-1.147-1.629-1.214-3.564-.213-4.269s2.749.073 3.896 1.701M494.547 243.641c.458 1.835 1.761 3.01 2.875 2.707 1.158-.338 1.714-2.045 1.289-3.835-.458-1.835-1.761-3.01-2.875-2.707-1.147.258-1.747 1.999-1.289 3.835"/></svg>